<svg xmlns="http://www.w3.org/2000/svg" viewBox="10.14 25 152.42 46.8" role="img" aria-label="nibbin">
  <!-- nibbin wordmark v1.1 (dusk artwork) — letterforms frozen from reference/nibbin-logo-guide.html; sprout glyph house-style shaded with dusk-bright greens, trailing n nudged 1u left. -->
  <defs>
    <linearGradient id="dStem" x1="0" y1="0.1" x2="1" y2="0.2"><stop offset="0%" stop-color="#A6CF62"/><stop offset="52%" stop-color="#7FAF45"/><stop offset="100%" stop-color="#5F8F33"/></linearGradient>
    <linearGradient id="dLeafL" x1="0.05" y1="0.05" x2="0.7" y2="1"><stop offset="0%" stop-color="#B6DC72"/><stop offset="100%" stop-color="#6E9436"/></linearGradient>
    <linearGradient id="dLeafR" x1="0.1" y1="0" x2="0.7" y2="1"><stop offset="0%" stop-color="#C8EA86"/><stop offset="100%" stop-color="#7FAF45"/></linearGradient>
  </defs>
  <path d="M10.74 70L10.74 52.75L10.74 40.43L18.19 40.43L18.25 50.85L19.03 50.85Q19.59 47.04 20.8 44.58Q22 42.11 24.07 40.88Q26.14 39.65 29.17 39.65Q34.15 39.65 36.73 43.06Q39.3 46.48 39.3 53.59L39.3 70L30.23 70L30.23 54.66Q30.23 50.9 29.11 49.11Q27.99 47.32 25.75 47.32Q23.85 47.32 22.5 48.55Q21.16 49.78 20.46 52.16Q19.76 54.54 19.76 58.07L19.76 70ZM42.93 70L42.93 40.43L51.95 40.43L51.95 70ZM47.41 37.3Q44.83 37.3 43.46 36.23Q42.09 35.17 42.09 33.1Q42.09 30.97 43.46 29.88Q44.83 28.78 47.41 28.78Q50.04 28.78 51.41 29.88Q52.79 30.97 52.79 33.1Q52.79 35.11 51.41 36.2Q50.04 37.3 47.41 37.3ZM74.15 70.78Q71.51 70.78 69.5 69.69Q67.48 68.6 66.19 66.42Q64.91 64.23 64.4 61.04L63.67 61.04L63.56 70L55.95 70L55.95 57.57L55.95 30.24L64.96 30.24L64.96 39.48Q64.96 40.94 64.79 42.53Q64.63 44.13 64.35 45.86Q64.07 47.6 63.73 49.5L64.63 49.5Q65.3 46.14 66.59 43.96Q67.87 41.78 69.83 40.74Q71.79 39.7 74.43 39.7Q77.9 39.7 80.47 41.5Q83.05 43.29 84.48 46.7Q85.91 50.12 85.91 55.1Q85.91 60.2 84.42 63.7Q82.94 67.2 80.28 68.99Q77.62 70.78 74.15 70.78ZM70.9 63.56Q72.63 63.56 73.92 62.47Q75.21 61.38 75.88 59.56Q76.55 57.74 76.55 55.38Q76.55 52.98 75.91 51.13Q75.27 49.28 74.03 48.19Q72.8 47.1 70.95 47.1Q70 47.1 69.08 47.43Q68.15 47.77 67.4 48.47Q66.64 49.17 66.08 50.12Q65.52 51.07 65.21 52.28Q64.91 53.48 64.91 54.88L64.91 55.61Q64.91 57.29 65.33 58.72Q65.75 60.14 66.5 61.24Q67.26 62.33 68.38 62.94Q69.5 63.56 70.9 63.56ZM106.88 70.78Q104.24 70.78 102.23 69.69Q100.21 68.6 98.92 66.42Q97.64 64.23 97.13 61.04L96.4 61.04L96.29 70L88.68 70L88.68 57.57L88.68 30.24L97.69 30.24L97.69 39.48Q97.69 40.94 97.52 42.53Q97.36 44.13 97.08 45.86Q96.8 47.6 96.46 49.5L97.36 49.5Q98.03 46.14 99.32 43.96Q100.6 41.78 102.56 40.74Q104.52 39.7 107.16 39.7Q110.63 39.7 113.2 41.5Q115.78 43.29 117.21 46.7Q118.64 50.12 118.64 55.1Q118.64 60.2 117.15 63.7Q115.67 67.2 113.01 68.99Q110.35 70.78 106.88 70.78ZM103.63 63.56Q105.36 63.56 106.65 62.47Q107.94 61.38 108.61 59.56Q109.28 57.74 109.28 55.38Q109.28 52.98 108.64 51.13Q108 49.28 106.76 48.19Q105.53 47.1 103.68 47.1Q102.73 47.1 101.81 47.43Q100.88 47.77 100.13 48.47Q99.37 49.17 98.81 50.12Q98.25 51.07 97.94 52.28Q97.64 53.48 97.64 54.88L97.64 55.61Q97.64 57.29 98.06 58.72Q98.48 60.14 99.23 61.24Q99.99 62.33 101.11 62.94Q102.23 63.56 103.63 63.56Z" fill="#E8ECDD"/>
  <g transform="translate(116.16 0)">
    <path d="M5.4 71.2 C6 58.8 7.1 47 7.7 36.5 L10 36.5 C10.8 47 11.8 58.8 12.4 71.2 Z" fill="url(#dStem)" stroke="#4C7026" stroke-width="1.2" stroke-linejoin="round"/>
    <path d="M6.7 69 C7.1 58.8 7.9 47 8.4 37.5" fill="none" stroke="#E2F2C2" stroke-width="0.9" stroke-linecap="round" opacity="0.55"/>
    <path d="M11.1 69 C10.7 58.8 10 47 9.5 37.5" fill="none" stroke="#3C541C" stroke-width="1" stroke-linecap="round" opacity="0.32"/>
    <path d="M8.6 37.5 C2.5 38 -4.2 35.5 -6.5 30 C-0.5 27.2 6.4 30.8 8.6 37.5 Z" fill="url(#dLeafL)" stroke="#4C7026" stroke-width="1.2" stroke-linejoin="round"/>
    <path d="M6 35.3 C1 34.8 -3.5 32.8 -6 30.3" fill="none" stroke="#4C7026" stroke-width="0.7" opacity="0.4"/>
    <path d="M5 33.4 C1 33 -2.6 31.4 -5.2 29.9" fill="none" stroke="#E2F2C2" stroke-width="0.6" opacity="0.55"/>
    <path d="M9 37.5 C15 36.6 21.5 33.6 23.5 28.6 C17.3 26.2 10.6 29.8 9 37.5 Z" fill="url(#dLeafR)" stroke="#4C7026" stroke-width="1.2" stroke-linejoin="round"/>
    <path d="M11 35.3 C15.5 34.4 19.6 32 23 28.9" fill="none" stroke="#5F8F33" stroke-width="0.7" opacity="0.4"/>
    <path d="M12 33.4 C15.6 32.5 18.8 30.6 21.6 28.3" fill="none" stroke="#EAF6D2" stroke-width="0.6" opacity="0.6"/>
  </g>
  <path transform="translate(-1 0)" d="M133.41 70L133.41 52.75L133.41 40.43L140.85 40.43L140.91 50.85L141.69 50.85Q142.25 47.04 143.46 44.58Q144.66 42.11 146.73 40.88Q148.81 39.65 151.83 39.65Q156.81 39.65 159.39 43.06Q161.97 46.48 161.97 53.59L161.97 70L152.89 70L152.89 54.66Q152.89 50.9 151.77 49.11Q150.65 47.32 148.41 47.32Q146.51 47.32 145.17 48.55Q143.82 49.78 143.12 52.16Q142.42 54.54 142.42 58.07L142.42 70Z" fill="#E8ECDD"/>
</svg>
